<svg id="Layer_1" data-name="Layer 1" xmlns="http://www.w3.org/2000/svg" viewBox="0 0 48 48"><defs><style>.cls-1{fill:#2d07a5;}.cls-2{fill:#6aefd6;}</style></defs><path class="cls-1" d="M18.57,32.38A10,10,0,1,0,14.05,23a9.91,9.91,0,0,0,1,5.36.56.56,0,0,1-.1.64l-3.75,3.74a.53.53,0,0,1-.72,0,29,29,0,0,1-6.08-7.41,2.79,2.79,0,0,1,0-2.74C6.38,19.11,12.68,10,24,10s17.62,9.11,19.64,12.63a2.79,2.79,0,0,1,0,2.74C41.62,28.89,35.32,38,24,38a19.8,19.8,0,0,1-8.78-2,.36.36,0,0,1-.09-.59l2.95-3A.39.39,0,0,1,18.57,32.38Z"/><path class="cls-2" d="M24.12,17.93a6.12,6.12,0,0,0-4,.84.59.59,0,0,0-.21.74,10.78,10.78,0,0,1,0,9,.57.57,0,0,0,.22.74,6.13,6.13,0,1,0,4-11.3Z"/></svg>